<mxfile host="65bd71144e">
    <diagram id="C5RBs43oDa-KdzZeNtuy" name="Page-1">
        <mxGraphModel dx="2178" dy="489" grid="1" gridSize="10" guides="1" tooltips="1" connect="1" arrows="1" fold="1" page="1" pageScale="1" pageWidth="827" pageHeight="1169" math="0" shadow="0">
            <root>
                <mxCell id="WIyWlLk6GJQsqaUBKTNV-0"/>
                <mxCell id="WIyWlLk6GJQsqaUBKTNV-1" parent="WIyWlLk6GJQsqaUBKTNV-0"/>
                <mxCell id="zkfFHV4jXpPFQw0GAbJ--0" value="Capteurs" style="swimlane;fontStyle=0;align=center;verticalAlign=top;childLayout=stackLayout;horizontal=1;startSize=26;horizontalStack=0;resizeParent=1;resizeLast=0;collapsible=1;marginBottom=0;rounded=0;shadow=0;strokeWidth=1;" parent="WIyWlLk6GJQsqaUBKTNV-1" vertex="1">
                    <mxGeometry x="350" y="140" width="160" height="120" as="geometry">
                        <mxRectangle x="230" y="140" width="160" height="26" as="alternateBounds"/>
                    </mxGeometry>
                </mxCell>
                <mxCell id="zkfFHV4jXpPFQw0GAbJ--1" value="idCapteur" style="text;align=left;verticalAlign=top;spacingLeft=4;spacingRight=4;overflow=hidden;rotatable=0;points=[[0,0.5],[1,0.5]];portConstraint=eastwest;fontStyle=4" parent="zkfFHV4jXpPFQw0GAbJ--0" vertex="1">
                    <mxGeometry y="26" width="160" height="26" as="geometry"/>
                </mxCell>
                <mxCell id="zN-kpuimuayOz62OdHt_-6" value="dateInsta" style="text;align=left;verticalAlign=top;spacingLeft=4;spacingRight=4;overflow=hidden;rotatable=0;points=[[0,0.5],[1,0.5]];portConstraint=eastwest;rounded=0;shadow=0;html=0;" parent="zkfFHV4jXpPFQw0GAbJ--0" vertex="1">
                    <mxGeometry y="52" width="160" height="26" as="geometry"/>
                </mxCell>
                <mxCell id="zN-kpuimuayOz62OdHt_-7" value="dateDesinsta" style="text;align=left;verticalAlign=top;spacingLeft=4;spacingRight=4;overflow=hidden;rotatable=0;points=[[0,0.5],[1,0.5]];portConstraint=eastwest;rounded=0;shadow=0;html=0;" parent="zkfFHV4jXpPFQw0GAbJ--0" vertex="1">
                    <mxGeometry y="78" width="160" height="26" as="geometry"/>
                </mxCell>
                <mxCell id="zkfFHV4jXpPFQw0GAbJ--13" value="MesuresVect" style="swimlane;fontStyle=0;align=center;verticalAlign=top;childLayout=stackLayout;horizontal=1;startSize=26;horizontalStack=0;resizeParent=1;resizeLast=0;collapsible=1;marginBottom=0;rounded=0;shadow=0;strokeWidth=1;" parent="WIyWlLk6GJQsqaUBKTNV-1" vertex="1">
                    <mxGeometry x="-50" y="73" width="160" height="167" as="geometry">
                        <mxRectangle x="340" y="380" width="170" height="26" as="alternateBounds"/>
                    </mxGeometry>
                </mxCell>
                <mxCell id="zN-kpuimuayOz62OdHt_-9" value="idMesureVect" style="text;align=left;verticalAlign=top;spacingLeft=4;spacingRight=4;overflow=hidden;rotatable=0;points=[[0,0.5],[1,0.5]];portConstraint=eastwest;rounded=0;shadow=0;html=0;fontStyle=4" parent="zkfFHV4jXpPFQw0GAbJ--13" vertex="1">
                    <mxGeometry y="26" width="160" height="26" as="geometry"/>
                </mxCell>
                <mxCell id="zN-kpuimuayOz62OdHt_-10" value="date" style="text;align=left;verticalAlign=top;spacingLeft=4;spacingRight=4;overflow=hidden;rotatable=0;points=[[0,0.5],[1,0.5]];portConstraint=eastwest;rounded=0;shadow=0;html=0;" parent="zkfFHV4jXpPFQw0GAbJ--13" vertex="1">
                    <mxGeometry y="52" width="160" height="26" as="geometry"/>
                </mxCell>
                <mxCell id="zN-kpuimuayOz62OdHt_-11" value="x" style="text;align=left;verticalAlign=top;spacingLeft=4;spacingRight=4;overflow=hidden;rotatable=0;points=[[0,0.5],[1,0.5]];portConstraint=eastwest;rounded=0;shadow=0;html=0;" parent="zkfFHV4jXpPFQw0GAbJ--13" vertex="1">
                    <mxGeometry y="78" width="160" height="26" as="geometry"/>
                </mxCell>
                <mxCell id="zN-kpuimuayOz62OdHt_-12" value="y" style="text;align=left;verticalAlign=top;spacingLeft=4;spacingRight=4;overflow=hidden;rotatable=0;points=[[0,0.5],[1,0.5]];portConstraint=eastwest;rounded=0;shadow=0;html=0;" parent="zkfFHV4jXpPFQw0GAbJ--13" vertex="1">
                    <mxGeometry y="104" width="160" height="26" as="geometry"/>
                </mxCell>
                <mxCell id="zN-kpuimuayOz62OdHt_-13" value="z" style="text;align=left;verticalAlign=top;spacingLeft=4;spacingRight=4;overflow=hidden;rotatable=0;points=[[0,0.5],[1,0.5]];portConstraint=eastwest;rounded=0;shadow=0;html=0;" parent="zkfFHV4jXpPFQw0GAbJ--13" vertex="1">
                    <mxGeometry y="130" width="160" height="26" as="geometry"/>
                </mxCell>
                <mxCell id="zkfFHV4jXpPFQw0GAbJ--17" value="MesuresSimples" style="swimlane;fontStyle=0;align=center;verticalAlign=top;childLayout=stackLayout;horizontal=1;startSize=26;horizontalStack=0;resizeParent=1;resizeLast=0;collapsible=1;marginBottom=0;rounded=0;shadow=0;strokeWidth=1;" parent="WIyWlLk6GJQsqaUBKTNV-1" vertex="1">
                    <mxGeometry x="667" y="110" width="160" height="120" as="geometry">
                        <mxRectangle x="550" y="140" width="160" height="26" as="alternateBounds"/>
                    </mxGeometry>
                </mxCell>
                <mxCell id="zkfFHV4jXpPFQw0GAbJ--19" value="idMesureSimple" style="text;align=left;verticalAlign=top;spacingLeft=4;spacingRight=4;overflow=hidden;rotatable=0;points=[[0,0.5],[1,0.5]];portConstraint=eastwest;rounded=0;shadow=0;html=0;fontStyle=4" parent="zkfFHV4jXpPFQw0GAbJ--17" vertex="1">
                    <mxGeometry y="26" width="160" height="28" as="geometry"/>
                </mxCell>
                <mxCell id="zkfFHV4jXpPFQw0GAbJ--20" value="date" style="text;align=left;verticalAlign=top;spacingLeft=4;spacingRight=4;overflow=hidden;rotatable=0;points=[[0,0.5],[1,0.5]];portConstraint=eastwest;rounded=0;shadow=0;html=0;" parent="zkfFHV4jXpPFQw0GAbJ--17" vertex="1">
                    <mxGeometry y="54" width="160" height="26" as="geometry"/>
                </mxCell>
                <mxCell id="9aGw7pQHKSIhIZDO6fZ9-0" value="valeur" style="text;align=left;verticalAlign=top;spacingLeft=4;spacingRight=4;overflow=hidden;rotatable=0;points=[[0,0.5],[1,0.5]];portConstraint=eastwest;rounded=0;shadow=0;html=0;" parent="zkfFHV4jXpPFQw0GAbJ--17" vertex="1">
                    <mxGeometry y="80" width="160" height="26" as="geometry"/>
                </mxCell>
                <mxCell id="zkfFHV4jXpPFQw0GAbJ--26" value="" style="endArrow=classic;shadow=0;strokeWidth=1;rounded=0;endFill=1;edgeStyle=elbowEdgeStyle;exitX=1;exitY=0.5;exitDx=0;exitDy=0;strokeColor=default;entryX=0;entryY=0.5;entryDx=0;entryDy=0;" parent="WIyWlLk6GJQsqaUBKTNV-1" target="zkfFHV4jXpPFQw0GAbJ--17" edge="1">
                    <mxGeometry x="0.5" y="41" relative="1" as="geometry">
                        <mxPoint x="510" y="205" as="sourcePoint"/>
                        <mxPoint x="667" y="190" as="targetPoint"/>
                        <mxPoint x="-40" y="32" as="offset"/>
                        <Array as="points">
                            <mxPoint x="600" y="200"/>
                        </Array>
                    </mxGeometry>
                </mxCell>
                <mxCell id="zkfFHV4jXpPFQw0GAbJ--27" value="1" style="resizable=0;align=left;verticalAlign=bottom;labelBackgroundColor=none;fontSize=12;" parent="zkfFHV4jXpPFQw0GAbJ--26" connectable="0" vertex="1">
                    <mxGeometry x="-1" relative="1" as="geometry">
                        <mxPoint x="2" as="offset"/>
                    </mxGeometry>
                </mxCell>
                <mxCell id="zkfFHV4jXpPFQw0GAbJ--28" value="1..*" style="resizable=0;align=right;verticalAlign=bottom;labelBackgroundColor=none;fontSize=12;" parent="zkfFHV4jXpPFQw0GAbJ--26" connectable="0" vertex="1">
                    <mxGeometry x="1" relative="1" as="geometry">
                        <mxPoint x="-7" y="1" as="offset"/>
                    </mxGeometry>
                </mxCell>
                <mxCell id="zkfFHV4jXpPFQw0GAbJ--29" value="envoie des" style="text;html=1;resizable=0;points=[];;align=center;verticalAlign=middle;labelBackgroundColor=none;rounded=0;shadow=0;strokeWidth=1;fontSize=12;" parent="zkfFHV4jXpPFQw0GAbJ--26" vertex="1" connectable="0">
                    <mxGeometry x="0.5" y="49" relative="1" as="geometry">
                        <mxPoint x="-53" y="68" as="offset"/>
                    </mxGeometry>
                </mxCell>
                <mxCell id="zN-kpuimuayOz62OdHt_-0" value="DonneesMouvements" style="swimlane;fontStyle=0;align=center;verticalAlign=top;childLayout=stackLayout;horizontal=1;startSize=26;horizontalStack=0;resizeParent=1;resizeLast=0;collapsible=1;marginBottom=0;rounded=0;shadow=0;strokeWidth=1;" parent="WIyWlLk6GJQsqaUBKTNV-1" vertex="1">
                    <mxGeometry x="334" y="585" width="160" height="125" as="geometry">
                        <mxRectangle x="130" y="380" width="160" height="26" as="alternateBounds"/>
                    </mxGeometry>
                </mxCell>
                <mxCell id="zN-kpuimuayOz62OdHt_-1" value="idDonneeMouvement" style="text;align=left;verticalAlign=top;spacingLeft=4;spacingRight=4;overflow=hidden;rotatable=0;points=[[0,0.5],[1,0.5]];portConstraint=eastwest;fontStyle=4" parent="zN-kpuimuayOz62OdHt_-0" vertex="1">
                    <mxGeometry y="26" width="160" height="26" as="geometry"/>
                </mxCell>
                <mxCell id="zN-kpuimuayOz62OdHt_-16" value="date" style="text;align=left;verticalAlign=top;spacingLeft=4;spacingRight=4;overflow=hidden;rotatable=0;points=[[0,0.5],[1,0.5]];portConstraint=eastwest;rounded=0;shadow=0;html=0;" parent="zN-kpuimuayOz62OdHt_-0" vertex="1">
                    <mxGeometry y="52" width="160" height="26" as="geometry"/>
                </mxCell>
                <mxCell id="zN-kpuimuayOz62OdHt_-81" value="nom" style="text;align=left;verticalAlign=top;spacingLeft=4;spacingRight=4;overflow=hidden;rotatable=0;points=[[0,0.5],[1,0.5]];portConstraint=eastwest;rounded=0;shadow=0;html=0;fontStyle=0" parent="zN-kpuimuayOz62OdHt_-0" vertex="1">
                    <mxGeometry y="78" width="160" height="26" as="geometry"/>
                </mxCell>
                <mxCell id="zN-kpuimuayOz62OdHt_-3" value="TypeCapteur" style="swimlane;fontStyle=0;align=center;verticalAlign=top;childLayout=stackLayout;horizontal=1;startSize=26;horizontalStack=0;resizeParent=1;resizeLast=0;collapsible=1;marginBottom=0;rounded=0;shadow=0;strokeWidth=1;" parent="WIyWlLk6GJQsqaUBKTNV-1" vertex="1">
                    <mxGeometry x="210" y="410" width="160" height="138" as="geometry">
                        <mxRectangle x="130" y="380" width="160" height="26" as="alternateBounds"/>
                    </mxGeometry>
                </mxCell>
                <mxCell id="zN-kpuimuayOz62OdHt_-4" value="idPlacement" style="text;align=left;verticalAlign=top;spacingLeft=4;spacingRight=4;overflow=hidden;rotatable=0;points=[[0,0.5],[1,0.5]];portConstraint=eastwest;fontStyle=4" parent="zN-kpuimuayOz62OdHt_-3" vertex="1">
                    <mxGeometry y="26" width="160" height="26" as="geometry"/>
                </mxCell>
                <mxCell id="zN-kpuimuayOz62OdHt_-5" value="nomCapteur" style="text;align=left;verticalAlign=top;spacingLeft=4;spacingRight=4;overflow=hidden;rotatable=0;points=[[0,0.5],[1,0.5]];portConstraint=eastwest;rounded=0;shadow=0;html=0;" parent="zN-kpuimuayOz62OdHt_-3" vertex="1">
                    <mxGeometry y="52" width="160" height="26" as="geometry"/>
                </mxCell>
                <mxCell id="zN-kpuimuayOz62OdHt_-30" value="fabricant&#10;" style="text;align=left;verticalAlign=top;spacingLeft=4;spacingRight=4;overflow=hidden;rotatable=0;points=[[0,0.5],[1,0.5]];portConstraint=eastwest;rounded=0;shadow=0;html=0;" parent="zN-kpuimuayOz62OdHt_-3" vertex="1">
                    <mxGeometry y="78" width="160" height="26" as="geometry"/>
                </mxCell>
                <mxCell id="zN-kpuimuayOz62OdHt_-76" value="type" style="text;align=left;verticalAlign=top;spacingLeft=4;spacingRight=4;overflow=hidden;rotatable=0;points=[[0,0.5],[1,0.5]];portConstraint=eastwest;rounded=0;shadow=0;html=0;" parent="zN-kpuimuayOz62OdHt_-3" vertex="1">
                    <mxGeometry y="104" width="160" height="26" as="geometry"/>
                </mxCell>
                <mxCell id="zN-kpuimuayOz62OdHt_-20" value="Utilisateur" style="swimlane;fontStyle=0;align=center;verticalAlign=top;childLayout=stackLayout;horizontal=1;startSize=26;horizontalStack=0;resizeParent=1;resizeLast=0;collapsible=1;marginBottom=0;rounded=0;shadow=0;strokeWidth=1;" parent="WIyWlLk6GJQsqaUBKTNV-1" vertex="1">
                    <mxGeometry x="650" y="660" width="160" height="156" as="geometry">
                        <mxRectangle x="130" y="380" width="160" height="26" as="alternateBounds"/>
                    </mxGeometry>
                </mxCell>
                <mxCell id="zN-kpuimuayOz62OdHt_-21" value="idUtilisateur" style="text;align=left;verticalAlign=top;spacingLeft=4;spacingRight=4;overflow=hidden;rotatable=0;points=[[0,0.5],[1,0.5]];portConstraint=eastwest;fontStyle=4" parent="zN-kpuimuayOz62OdHt_-20" vertex="1">
                    <mxGeometry y="26" width="160" height="26" as="geometry"/>
                </mxCell>
                <mxCell id="zN-kpuimuayOz62OdHt_-22" value="nomUtilisateur" style="text;align=left;verticalAlign=top;spacingLeft=4;spacingRight=4;overflow=hidden;rotatable=0;points=[[0,0.5],[1,0.5]];portConstraint=eastwest;rounded=0;shadow=0;html=0;" parent="zN-kpuimuayOz62OdHt_-20" vertex="1">
                    <mxGeometry y="52" width="160" height="26" as="geometry"/>
                </mxCell>
                <mxCell id="zN-kpuimuayOz62OdHt_-23" value="mdp" style="text;align=left;verticalAlign=top;spacingLeft=4;spacingRight=4;overflow=hidden;rotatable=0;points=[[0,0.5],[1,0.5]];portConstraint=eastwest;rounded=0;shadow=0;html=0;" parent="zN-kpuimuayOz62OdHt_-20" vertex="1">
                    <mxGeometry y="78" width="160" height="26" as="geometry"/>
                </mxCell>
                <mxCell id="zN-kpuimuayOz62OdHt_-24" value="taille" style="text;align=left;verticalAlign=top;spacingLeft=4;spacingRight=4;overflow=hidden;rotatable=0;points=[[0,0.5],[1,0.5]];portConstraint=eastwest;rounded=0;shadow=0;html=0;fontStyle=0" parent="zN-kpuimuayOz62OdHt_-20" vertex="1">
                    <mxGeometry y="104" width="160" height="26" as="geometry"/>
                </mxCell>
                <mxCell id="0" value="eleve" style="text;align=left;verticalAlign=top;spacingLeft=4;spacingRight=4;overflow=hidden;rotatable=0;points=[[0,0.5],[1,0.5]];portConstraint=eastwest;rounded=0;shadow=0;html=0;fontStyle=0" parent="zN-kpuimuayOz62OdHt_-20" vertex="1">
                    <mxGeometry y="130" width="160" height="26" as="geometry"/>
                </mxCell>
                <mxCell id="zN-kpuimuayOz62OdHt_-45" value="" style="endArrow=none;shadow=0;strokeWidth=1;rounded=0;endFill=0;edgeStyle=elbowEdgeStyle;exitX=1;exitY=0.5;exitDx=0;exitDy=0;strokeColor=default;startArrow=classic;startFill=1;entryX=0;entryY=0.5;entryDx=0;entryDy=0;" parent="WIyWlLk6GJQsqaUBKTNV-1" target="zkfFHV4jXpPFQw0GAbJ--1" edge="1">
                    <mxGeometry x="0.5" y="41" relative="1" as="geometry">
                        <mxPoint x="110" y="164" as="sourcePoint"/>
                        <mxPoint x="350" y="200" as="targetPoint"/>
                        <mxPoint x="-40" y="32" as="offset"/>
                    </mxGeometry>
                </mxCell>
                <mxCell id="zN-kpuimuayOz62OdHt_-46" value="1..*" style="resizable=0;align=left;verticalAlign=bottom;labelBackgroundColor=none;fontSize=12;" parent="zN-kpuimuayOz62OdHt_-45" connectable="0" vertex="1">
                    <mxGeometry x="-1" relative="1" as="geometry">
                        <mxPoint x="7" y="1" as="offset"/>
                    </mxGeometry>
                </mxCell>
                <mxCell id="zN-kpuimuayOz62OdHt_-47" value="1" style="resizable=0;align=right;verticalAlign=bottom;labelBackgroundColor=none;fontSize=12;" parent="zN-kpuimuayOz62OdHt_-45" connectable="0" vertex="1">
                    <mxGeometry x="1" relative="1" as="geometry">
                        <mxPoint x="-5" y="-1" as="offset"/>
                    </mxGeometry>
                </mxCell>
                <mxCell id="zN-kpuimuayOz62OdHt_-48" value="envoi des" style="text;html=1;resizable=0;points=[];;align=center;verticalAlign=middle;labelBackgroundColor=none;rounded=0;shadow=0;strokeWidth=1;fontSize=12;" parent="zN-kpuimuayOz62OdHt_-45" connectable="0" vertex="1">
                    <mxGeometry x="0.5" y="49" relative="1" as="geometry">
                        <mxPoint x="-25" y="40" as="offset"/>
                    </mxGeometry>
                </mxCell>
                <mxCell id="zN-kpuimuayOz62OdHt_-49" value="" style="endArrow=classic;shadow=0;strokeWidth=1;rounded=0;endFill=1;edgeStyle=elbowEdgeStyle;entryX=0;entryY=0.5;entryDx=0;entryDy=0;exitX=0;exitY=0.5;exitDx=0;exitDy=0;strokeColor=default;" parent="WIyWlLk6GJQsqaUBKTNV-1" source="zN-kpuimuayOz62OdHt_-6" target="zN-kpuimuayOz62OdHt_-4" edge="1">
                    <mxGeometry x="0.5" y="41" relative="1" as="geometry">
                        <mxPoint x="310" y="280" as="sourcePoint"/>
                        <mxPoint x="450" y="306" as="targetPoint"/>
                        <mxPoint x="-40" y="32" as="offset"/>
                        <Array as="points">
                            <mxPoint x="180" y="310"/>
                        </Array>
                    </mxGeometry>
                </mxCell>
                <mxCell id="zN-kpuimuayOz62OdHt_-50" value="1..*" style="resizable=0;align=left;verticalAlign=bottom;labelBackgroundColor=none;fontSize=12;" parent="zN-kpuimuayOz62OdHt_-49" connectable="0" vertex="1">
                    <mxGeometry x="-1" relative="1" as="geometry">
                        <mxPoint x="-26" y="18" as="offset"/>
                    </mxGeometry>
                </mxCell>
                <mxCell id="zN-kpuimuayOz62OdHt_-51" value="1" style="resizable=0;align=right;verticalAlign=bottom;labelBackgroundColor=none;fontSize=12;" parent="zN-kpuimuayOz62OdHt_-49" connectable="0" vertex="1">
                    <mxGeometry x="1" relative="1" as="geometry">
                        <mxPoint x="-8" y="1" as="offset"/>
                    </mxGeometry>
                </mxCell>
                <mxCell id="zN-kpuimuayOz62OdHt_-52" value="fait parti de" style="text;html=1;resizable=0;points=[];;align=center;verticalAlign=middle;labelBackgroundColor=none;rounded=0;shadow=0;strokeWidth=1;fontSize=12;" parent="zN-kpuimuayOz62OdHt_-49" connectable="0" vertex="1">
                    <mxGeometry x="0.5" y="49" relative="1" as="geometry">
                        <mxPoint x="-15" y="-154" as="offset"/>
                    </mxGeometry>
                </mxCell>
                <mxCell id="zN-kpuimuayOz62OdHt_-53" value="" style="endArrow=none;shadow=0;strokeWidth=1;rounded=0;endFill=0;edgeStyle=elbowEdgeStyle;entryX=0;entryY=0.5;entryDx=0;entryDy=0;exitX=1;exitY=0.5;exitDx=0;exitDy=0;strokeColor=default;startArrow=classic;startFill=1;" parent="WIyWlLk6GJQsqaUBKTNV-1" source="zN-kpuimuayOz62OdHt_-12" target="zN-kpuimuayOz62OdHt_-1" edge="1">
                    <mxGeometry x="0.5" y="41" relative="1" as="geometry">
                        <mxPoint x="290" y="400" as="sourcePoint"/>
                        <mxPoint x="430" y="426" as="targetPoint"/>
                        <mxPoint x="-40" y="32" as="offset"/>
                        <Array as="points">
                            <mxPoint x="140" y="410"/>
                        </Array>
                    </mxGeometry>
                </mxCell>
                <mxCell id="zN-kpuimuayOz62OdHt_-54" value="1..*" style="resizable=0;align=left;verticalAlign=bottom;labelBackgroundColor=none;fontSize=12;" parent="zN-kpuimuayOz62OdHt_-53" connectable="0" vertex="1">
                    <mxGeometry x="-1" relative="1" as="geometry">
                        <mxPoint x="7" y="1" as="offset"/>
                    </mxGeometry>
                </mxCell>
                <mxCell id="zN-kpuimuayOz62OdHt_-55" value="1" style="resizable=0;align=right;verticalAlign=bottom;labelBackgroundColor=none;fontSize=12;" parent="zN-kpuimuayOz62OdHt_-53" connectable="0" vertex="1">
                    <mxGeometry x="1" relative="1" as="geometry">
                        <mxPoint x="-7" y="1" as="offset"/>
                    </mxGeometry>
                </mxCell>
                <mxCell id="zN-kpuimuayOz62OdHt_-56" value="est composé de&amp;nbsp;" style="text;html=1;resizable=0;points=[];;align=center;verticalAlign=middle;labelBackgroundColor=none;rounded=0;shadow=0;strokeWidth=1;fontSize=12;" parent="zN-kpuimuayOz62OdHt_-53" connectable="0" vertex="1">
                    <mxGeometry x="0.5" y="49" relative="1" as="geometry">
                        <mxPoint x="18" y="37" as="offset"/>
                    </mxGeometry>
                </mxCell>
                <mxCell id="zN-kpuimuayOz62OdHt_-57" value="" style="endArrow=classic;shadow=0;strokeWidth=1;rounded=0;endFill=1;edgeStyle=elbowEdgeStyle;exitX=1;exitY=0.5;exitDx=0;exitDy=0;strokeColor=default;entryX=0;entryY=0.75;entryDx=0;entryDy=0;" parent="WIyWlLk6GJQsqaUBKTNV-1" edge="1">
                    <mxGeometry x="0.5" y="41" relative="1" as="geometry">
                        <mxPoint x="494" y="650" as="sourcePoint"/>
                        <mxPoint x="667" y="200" as="targetPoint"/>
                        <mxPoint x="-40" y="32" as="offset"/>
                        <Array as="points">
                            <mxPoint x="640" y="430"/>
                            <mxPoint x="610" y="434"/>
                        </Array>
                    </mxGeometry>
                </mxCell>
                <mxCell id="zN-kpuimuayOz62OdHt_-58" value="1" style="resizable=0;align=left;verticalAlign=bottom;labelBackgroundColor=none;fontSize=12;" parent="zN-kpuimuayOz62OdHt_-57" connectable="0" vertex="1">
                    <mxGeometry x="-1" relative="1" as="geometry">
                        <mxPoint x="3" y="1" as="offset"/>
                    </mxGeometry>
                </mxCell>
                <mxCell id="zN-kpuimuayOz62OdHt_-59" value="1..*" style="resizable=0;align=right;verticalAlign=bottom;labelBackgroundColor=none;fontSize=12;" parent="zN-kpuimuayOz62OdHt_-57" connectable="0" vertex="1">
                    <mxGeometry x="1" relative="1" as="geometry">
                        <mxPoint x="-7" as="offset"/>
                    </mxGeometry>
                </mxCell>
                <mxCell id="zN-kpuimuayOz62OdHt_-60" value="contient des" style="text;html=1;resizable=0;points=[];;align=center;verticalAlign=middle;labelBackgroundColor=none;rounded=0;shadow=0;strokeWidth=1;fontSize=12;" parent="zN-kpuimuayOz62OdHt_-57" connectable="0" vertex="1">
                    <mxGeometry x="0.5" y="49" relative="1" as="geometry">
                        <mxPoint x="-17" y="284" as="offset"/>
                    </mxGeometry>
                </mxCell>
                <mxCell id="zN-kpuimuayOz62OdHt_-61" value="" style="endArrow=none;shadow=0;strokeWidth=1;rounded=0;endFill=0;edgeStyle=elbowEdgeStyle;entryX=0;entryY=0.5;entryDx=0;entryDy=0;exitX=1;exitY=0.5;exitDx=0;exitDy=0;strokeColor=default;startArrow=classic;startFill=1;" parent="WIyWlLk6GJQsqaUBKTNV-1" source="zN-kpuimuayOz62OdHt_-81" target="zN-kpuimuayOz62OdHt_-24" edge="1">
                    <mxGeometry x="0.5" y="41" relative="1" as="geometry">
                        <mxPoint x="494" y="696.5" as="sourcePoint"/>
                        <mxPoint x="630" y="781.5" as="targetPoint"/>
                        <mxPoint x="-40" y="32" as="offset"/>
                        <Array as="points"/>
                    </mxGeometry>
                </mxCell>
                <mxCell id="zN-kpuimuayOz62OdHt_-62" value="0..*" style="resizable=0;align=left;verticalAlign=bottom;labelBackgroundColor=none;fontSize=12;" parent="zN-kpuimuayOz62OdHt_-61" connectable="0" vertex="1">
                    <mxGeometry x="-1" relative="1" as="geometry">
                        <mxPoint x="10" y="1" as="offset"/>
                    </mxGeometry>
                </mxCell>
                <mxCell id="zN-kpuimuayOz62OdHt_-63" value="1" style="resizable=0;align=right;verticalAlign=bottom;labelBackgroundColor=none;fontSize=12;" parent="zN-kpuimuayOz62OdHt_-61" connectable="0" vertex="1">
                    <mxGeometry x="1" relative="1" as="geometry">
                        <mxPoint x="-7" y="1" as="offset"/>
                    </mxGeometry>
                </mxCell>
                <mxCell id="zN-kpuimuayOz62OdHt_-64" value="&lt;span style=&quot;font-weight: normal;&quot;&gt;enregistre&lt;/span&gt;" style="text;html=1;resizable=0;points=[];;align=center;verticalAlign=middle;labelBackgroundColor=none;rounded=0;shadow=0;strokeWidth=1;fontSize=12;fontStyle=1" parent="zN-kpuimuayOz62OdHt_-61" connectable="0" vertex="1">
                    <mxGeometry x="0.5" y="49" relative="1" as="geometry">
                        <mxPoint x="-45" y="-39" as="offset"/>
                    </mxGeometry>
                </mxCell>
                <mxCell id="zN-kpuimuayOz62OdHt_-77" value="Dispositifs" style="swimlane;fontStyle=0;align=center;verticalAlign=top;childLayout=stackLayout;horizontal=1;startSize=26;horizontalStack=0;resizeParent=1;resizeLast=0;collapsible=1;marginBottom=0;rounded=0;shadow=0;strokeWidth=1;" parent="WIyWlLk6GJQsqaUBKTNV-1" vertex="1">
                    <mxGeometry x="420" y="340" width="160" height="90" as="geometry">
                        <mxRectangle x="130" y="380" width="160" height="26" as="alternateBounds"/>
                    </mxGeometry>
                </mxCell>
                <mxCell id="zN-kpuimuayOz62OdHt_-78" value="idDispo" style="text;align=left;verticalAlign=top;spacingLeft=4;spacingRight=4;overflow=hidden;rotatable=0;points=[[0,0.5],[1,0.5]];portConstraint=eastwest;rounded=0;shadow=0;html=0;fontStyle=4" parent="zN-kpuimuayOz62OdHt_-77" vertex="1">
                    <mxGeometry y="26" width="160" height="26" as="geometry"/>
                </mxCell>
                <mxCell id="zN-kpuimuayOz62OdHt_-79" value="nom" style="text;align=left;verticalAlign=top;spacingLeft=4;spacingRight=4;overflow=hidden;rotatable=0;points=[[0,0.5],[1,0.5]];portConstraint=eastwest;rounded=0;shadow=0;html=0;fontStyle=0" parent="zN-kpuimuayOz62OdHt_-77" vertex="1">
                    <mxGeometry y="52" width="160" height="26" as="geometry"/>
                </mxCell>
                <mxCell id="zN-kpuimuayOz62OdHt_-86" value="" style="endArrow=none;shadow=0;strokeWidth=1;rounded=0;endFill=0;edgeStyle=elbowEdgeStyle;entryX=0;entryY=0.5;entryDx=0;entryDy=0;exitX=0;exitY=0.75;exitDx=0;exitDy=0;strokeColor=default;startArrow=classic;startFill=1;" parent="WIyWlLk6GJQsqaUBKTNV-1" source="zkfFHV4jXpPFQw0GAbJ--0" target="zN-kpuimuayOz62OdHt_-77" edge="1">
                    <mxGeometry x="0.5" y="41" relative="1" as="geometry">
                        <mxPoint x="310" y="330" as="sourcePoint"/>
                        <mxPoint x="502" y="368" as="targetPoint"/>
                        <mxPoint x="-40" y="32" as="offset"/>
                        <Array as="points">
                            <mxPoint x="290" y="320"/>
                        </Array>
                    </mxGeometry>
                </mxCell>
                <mxCell id="zN-kpuimuayOz62OdHt_-87" value="1..*" style="resizable=0;align=left;verticalAlign=bottom;labelBackgroundColor=none;fontSize=12;" parent="zN-kpuimuayOz62OdHt_-86" connectable="0" vertex="1">
                    <mxGeometry x="-1" relative="1" as="geometry">
                        <mxPoint x="-26" y="19" as="offset"/>
                    </mxGeometry>
                </mxCell>
                <mxCell id="zN-kpuimuayOz62OdHt_-88" value="1" style="resizable=0;align=right;verticalAlign=bottom;labelBackgroundColor=none;fontSize=12;" parent="zN-kpuimuayOz62OdHt_-86" connectable="0" vertex="1">
                    <mxGeometry x="1" relative="1" as="geometry">
                        <mxPoint x="-5" y="-1" as="offset"/>
                    </mxGeometry>
                </mxCell>
                <mxCell id="zN-kpuimuayOz62OdHt_-89" value="est composé de" style="text;html=1;resizable=0;points=[];;align=center;verticalAlign=middle;labelBackgroundColor=none;rounded=0;shadow=0;strokeWidth=1;fontSize=12;" parent="zN-kpuimuayOz62OdHt_-86" connectable="0" vertex="1">
                    <mxGeometry x="0.5" y="49" relative="1" as="geometry">
                        <mxPoint y="40" as="offset"/>
                    </mxGeometry>
                </mxCell>
                <mxCell id="zN-kpuimuayOz62OdHt_-90" value="" style="endArrow=classic;shadow=0;strokeWidth=1;rounded=0;endFill=1;edgeStyle=elbowEdgeStyle;entryX=1;entryY=0.5;entryDx=0;entryDy=0;strokeColor=default;exitX=1;exitY=0.5;exitDx=0;exitDy=0;startArrow=none;startFill=0;" parent="WIyWlLk6GJQsqaUBKTNV-1" source="zN-kpuimuayOz62OdHt_-79" target="zN-kpuimuayOz62OdHt_-1" edge="1">
                    <mxGeometry x="0.5" y="41" relative="1" as="geometry">
                        <mxPoint x="590" y="400" as="sourcePoint"/>
                        <mxPoint x="580" y="648" as="targetPoint"/>
                        <mxPoint x="-40" y="32" as="offset"/>
                        <Array as="points">
                            <mxPoint x="610" y="580"/>
                        </Array>
                    </mxGeometry>
                </mxCell>
                <mxCell id="zN-kpuimuayOz62OdHt_-91" value="1..*" style="resizable=0;align=left;verticalAlign=bottom;labelBackgroundColor=none;fontSize=12;" parent="zN-kpuimuayOz62OdHt_-90" connectable="0" vertex="1">
                    <mxGeometry x="-1" relative="1" as="geometry">
                        <mxPoint y="19" as="offset"/>
                    </mxGeometry>
                </mxCell>
                <mxCell id="zN-kpuimuayOz62OdHt_-92" value="1..*" style="resizable=0;align=right;verticalAlign=bottom;labelBackgroundColor=none;fontSize=12;" parent="zN-kpuimuayOz62OdHt_-90" connectable="0" vertex="1">
                    <mxGeometry x="1" relative="1" as="geometry">
                        <mxPoint x="31" y="1" as="offset"/>
                    </mxGeometry>
                </mxCell>
                <mxCell id="zN-kpuimuayOz62OdHt_-93" value="est composé de&amp;nbsp;" style="text;html=1;resizable=0;points=[];;align=center;verticalAlign=middle;labelBackgroundColor=none;rounded=0;shadow=0;strokeWidth=1;fontSize=12;" parent="zN-kpuimuayOz62OdHt_-90" connectable="0" vertex="1">
                    <mxGeometry x="0.5" y="49" relative="1" as="geometry">
                        <mxPoint x="103" y="-313" as="offset"/>
                    </mxGeometry>
                </mxCell>
            </root>
        </mxGraphModel>
    </diagram>
</mxfile>